<svg width="48" height="45" viewBox="0 0 48 45" fill="none" xmlns="http://www.w3.org/2000/svg">
<path d="M35.0926 19.098C34.7305 18.7553 34.1443 18.7553 33.7823 19.098C33.4211 19.4399 33.4211 19.9948 33.7823 20.3375C34.1443 20.6803 34.7305 20.6803 35.0926 20.3375C35.4538 19.9948 35.4538 19.4399 35.0926 19.098Z" fill="#FFEEEE"/>
<path d="M37.92 22.4815L37.9914 22.4139L37.9919 22.4134C39.0484 21.4142 39.7395 20.1605 40.0044 18.7834C40.0044 18.7833 40.0045 18.7831 40.0045 18.783C40.0067 18.7716 40.0089 18.7602 40.011 18.7487L41.3509 11.5605L41.4793 10.8717L41.5389 10.5516L41.6669 10.5789L37.92 22.4815ZM37.92 22.4815L37.3694 21.9002M37.92 22.4815L37.9196 22.4819M40.1595 18.7769L40.1532 18.8107L40.1531 18.8112C39.8862 20.2394 39.183 21.5333 38.1284 22.5578C38.1283 22.5579 38.1281 22.5581 38.128 22.5582C38.1045 22.581 38.0809 22.6037 38.0571 22.6262L40.1595 18.7769ZM40.1595 18.7769L40.994 18.9325L40.1596 18.7765L40.1595 18.7769ZM37.3694 21.9002L37.9196 22.4819M37.3694 21.9002L35.7472 23.4366C34.664 24.4621 32.9015 24.4621 31.8183 23.4366L22.6506 14.7581C21.5674 13.7326 21.5674 12.0643 22.6504 11.039M37.3694 21.9002C38.3145 21.0064 38.937 19.8748 39.1702 18.6275L40.6448 10.7162L36.0881 6.40254L27.7303 7.79855C26.4132 8.01928 25.2178 8.60855 24.2742 9.50269M37.9196 22.4819L36.3696 23.9499C36.3695 23.95 36.3695 23.95 36.3694 23.9501L37.9196 22.4819ZM22.6504 11.039L27.5732 7.05831C27.5731 7.05833 27.573 7.05834 27.5729 7.05836C27.5729 7.05837 27.5728 7.05838 27.5727 7.05839C26.1035 7.30464 24.7775 7.95053 23.7244 8.92154L24.2742 9.50269M22.6504 11.039L24.2742 9.50269M22.6504 11.039L23.7239 8.92196L24.2742 9.50269M36.1549 5.32595C36.1664 5.34131 36.1782 5.35653 36.1903 5.37162L36.1667 5.37555L36.1549 5.32595ZM21.219 14.6854L21.1771 14.4051C21.2377 14.5333 21.3066 14.6587 21.3835 14.7806C21.3282 14.7472 21.2722 14.7153 21.2155 14.685L21.219 14.6854ZM31.9818 25.0284C31.9211 24.9003 31.8523 24.7749 31.7753 24.6529C31.8311 24.6865 31.8876 24.7187 31.9448 24.7492L31.94 24.7486L31.9818 25.0284ZM26.5366 29.6117C26.5921 29.6452 26.6482 29.6772 26.705 29.7076L26.7011 29.7071L26.743 29.9871C26.6823 29.859 26.6136 29.7337 26.5366 29.6117ZM21.2987 34.5708C21.3537 34.604 21.4094 34.6357 21.4657 34.6659L21.4626 34.6655L21.5045 34.9449C21.444 34.8173 21.3754 34.6923 21.2987 34.5708ZM10.907 24.699C10.852 24.6659 10.7964 24.6343 10.7401 24.6042L10.6975 24.318C10.7589 24.448 10.8287 24.5753 10.907 24.699ZM16.145 19.7398C16.0896 19.7064 16.0335 19.6745 15.9767 19.6441L15.9774 19.6442L15.9348 19.3576C15.9964 19.488 16.0665 19.6157 16.145 19.7398Z" fill="#FFEEEE" stroke="white" stroke-width="2"/>
<mask id="path-3-inside-1_3_175" fill="white">
<path d="M46.8028 33.203L42.6764 25.5502C42.5182 25.2568 42.1996 25.0721 41.8516 25.0721C41.5036 25.0721 41.1851 25.2568 41.0268 25.5502L36.9007 33.2026C35.0253 36.6759 37.6977 40.8512 41.8516 40.8512C46.0048 40.8512 48.6781 36.6766 46.8028 33.203ZM41.8516 39.098C39.0796 39.098 37.3022 36.3112 38.5501 34.0001L41.8516 27.8769L45.1534 34.0004C46.3997 36.309 44.6263 39.098 41.8516 39.098Z"/>
</mask>
<path d="M46.8028 33.203L42.6764 25.5502C42.5182 25.2568 42.1996 25.0721 41.8516 25.0721C41.5036 25.0721 41.1851 25.2568 41.0268 25.5502L36.9007 33.2026C35.0253 36.6759 37.6977 40.8512 41.8516 40.8512C46.0048 40.8512 48.6781 36.6766 46.8028 33.203ZM41.8516 39.098C39.0796 39.098 37.3022 36.3112 38.5501 34.0001L41.8516 27.8769L45.1534 34.0004C46.3997 36.309 44.6263 39.098 41.8516 39.098Z" fill="#FFEEEE"/>
<path d="M46.8028 33.203L45.0424 34.1522L45.0429 34.1531L46.8028 33.203ZM42.6764 25.5502L44.4368 24.601L44.4367 24.6008L42.6764 25.5502ZM41.0268 25.5502L39.2665 24.6008L39.2664 24.601L41.0268 25.5502ZM36.9007 33.2026L38.6605 34.1529L38.6611 34.1518L36.9007 33.2026ZM38.5501 34.0001L40.31 34.9503L40.3106 34.9493L38.5501 34.0001ZM41.8516 27.8769L43.612 26.9277L41.8516 23.6628L40.0912 26.9278L41.8516 27.8769ZM45.1534 34.0004L43.393 34.9496L43.3935 34.9506L45.1534 34.0004ZM48.5632 32.2538L44.4368 24.601L40.916 26.4994L45.0424 34.1522L48.5632 32.2538ZM44.4367 24.6008C43.9109 23.6259 42.895 23.0721 41.8516 23.0721V27.0721C41.5043 27.0721 41.1255 26.8878 40.9162 26.4997L44.4367 24.6008ZM41.8516 23.0721C40.8083 23.0721 39.7924 23.6259 39.2665 24.6008L42.7871 26.4997C42.5777 26.8878 42.199 27.0721 41.8516 27.0721V23.0721ZM39.2664 24.601L35.1403 32.2534L38.6611 34.1518L42.7872 26.4994L39.2664 24.601ZM35.1409 32.2524C32.4607 37.216 36.3665 42.8512 41.8516 42.8512V38.8512C39.029 38.8512 37.5899 36.1358 38.6605 34.1529L35.1409 32.2524ZM41.8516 42.8512C47.3356 42.8512 51.2428 37.2171 48.5627 32.2529L45.0429 34.1531C46.1134 36.136 44.674 38.8512 41.8516 38.8512V42.8512ZM41.8516 37.098C40.4131 37.098 39.8658 35.773 40.31 34.9503L36.7903 33.0498C34.7387 36.8494 37.7462 41.098 41.8516 41.098V37.098ZM40.3106 34.9493L43.612 28.8261L40.0912 26.9278L36.7897 33.0509L40.3106 34.9493ZM40.0912 28.8261L43.393 34.9496L46.9138 33.0512L43.612 26.9277L40.0912 28.8261ZM43.3935 34.9506C43.8374 35.7728 43.2904 37.098 41.8516 37.098V41.098C45.9622 41.098 48.9621 36.8452 46.9133 33.0503L43.3935 34.9506Z" fill="white" mask="url(#path-3-inside-1_3_175)"/>
<path d="M32.4731 16.618L28.0022 12.3856C27.6405 12.0433 27.0543 12.0433 26.6925 12.3856C26.3309 12.728 26.3309 13.283 26.6925 13.6254L31.1634 17.8577C31.5251 18.2 32.1113 18.2 32.4731 17.8577C32.8347 17.5153 32.8347 16.9603 32.4731 16.618Z" fill="#FFEEEE"/>
</svg>
