<svg width="22" height="24" viewBox="0 0 22 24" fill="none" xmlns="http://www.w3.org/2000/svg">
<path d="M13.8 4.03749C12.3125 4.64999 10.475 3.42499 10.475 3.42499C10.475 3.42499 11.0875 1.32499 12.575 0.799988C14.0625 0.274988 15.9 1.41249 15.9 1.41249C15.9 1.41249 15.2875 3.42499 13.8 4.03749Z" stroke="#5631FA" stroke-miterlimit="10" stroke-linecap="round" stroke-linejoin="round"/>
<path d="M16.3374 5.96252C15.0249 5.70002 13.6249 6.05002 12.5749 6.75002C11.6124 7.36252 10.3874 7.36252 9.51245 6.75002C8.37495 6.05002 6.97495 5.70002 5.66245 5.96252C2.42495 6.48752 0.149948 9.90002 0.587448 13.575C1.02495 17.25 4.61245 23.8125 7.84995 23.2875C8.28745 23.2 8.72495 23.025 9.07495 22.7625C10.2124 21.975 11.7874 21.975 12.9249 22.7625C13.2749 23.025 13.7124 23.2 14.1499 23.2875C17.3874 23.8125 20.9749 17.25 21.4124 13.575C21.9374 9.90002 19.6624 6.48752 16.3374 5.96252Z" stroke="#5631FA" stroke-miterlimit="10" stroke-linecap="round" stroke-linejoin="round"/>
<path d="M7.5 0.625L7.85 0.8875C9.8625 2.375 11 4.7375 11 7.1875" stroke="#5631FA" stroke-miterlimit="10" stroke-linecap="round" stroke-linejoin="round"/>
</svg>
