<svg width="31" height="34" viewBox="0 0 31 34" fill="none" xmlns="http://www.w3.org/2000/svg">
<path d="M28.6875 29.75H20.0812C18.8062 29.75 17.6375 29.2188 16.6812 28.3688L3.1875 14.875L10.625 6.375C10.625 10.5188 14.9812 14.875 19.125 14.875H20.1875C20.0812 19.6562 21.8875 23.1625 26.5625 24.65C26.8813 24.7563 27.0937 24.8625 27.4125 24.8625C28.6875 25.1812 29.5375 26.5625 29.2188 27.8375L28.6875 29.75Z" stroke="white" stroke-width="1.5" stroke-miterlimit="10" stroke-linecap="round" stroke-linejoin="round"/>
<path d="M1.0625 17L15.6187 31.5563C16.4687 32.4063 17.7437 32.9375 19.0187 32.9375H28.6875" stroke="white" stroke-width="1.5" stroke-miterlimit="10" stroke-linecap="round" stroke-linejoin="round"/>
<path d="M15.9375 20.1875H20.7188" stroke="white" stroke-width="1.5" stroke-miterlimit="10" stroke-linecap="round" stroke-linejoin="round"/>
<path d="M18.0625 23.375H23.9062" stroke="white" stroke-width="1.5" stroke-miterlimit="10" stroke-linecap="round" stroke-linejoin="round"/>
<path d="M29.75 1.0625L21.9938 8.81875C20.1875 10.625 19.55 13.175 20.1875 15.6187" stroke="white" stroke-width="1.5" stroke-miterlimit="10" stroke-linecap="round" stroke-linejoin="round"/>
<path d="M10.625 7.4375C12.6437 6.8 14.45 5.3125 15.5125 3.50625L17 1.0625" stroke="white" stroke-width="1.5" stroke-miterlimit="10" stroke-linecap="round" stroke-linejoin="round"/>
</svg>
